<svg width="100" height="100" viewBox="0 0 100 100" fill="none" xmlns="http://www.w3.org/2000/svg">
<circle cx="50" cy="50" r="50" fill="#F47676" fill-opacity="0.15"/>
<path d="M55.7266 47.2727V63.6364M25.7266 33.6364H74.8175H25.7266ZM69.3629 33.6364V71.8182C69.3629 73.2648 68.7883 74.6522 67.7653 75.6751C66.7424 76.6981 65.355 77.2727 63.9084 77.2727H36.6357C35.189 77.2727 33.8016 76.6981 32.7787 75.6751C31.7558 74.6522 31.1811 73.2648 31.1811 71.8182V33.6364H69.3629ZM39.3629 33.6364V28.1818C39.3629 26.7352 39.9376 25.3478 40.9605 24.3249C41.9835 23.302 43.3708 22.7273 44.8175 22.7273H55.7266C57.1732 22.7273 58.5606 23.302 59.5835 24.3249C60.6064 25.3478 61.1811 26.7352 61.1811 28.1818V33.6364H39.3629ZM44.8175 47.2727V63.6364V47.2727Z" stroke="url(#paint0_linear_2368_1745)" stroke-width="3" stroke-linecap="round" stroke-linejoin="round"/>
<defs>
<linearGradient id="paint0_linear_2368_1745" x1="50.272" y1="22.7273" x2="50.272" y2="77.2728" gradientUnits="userSpaceOnUse">
<stop stop-color="#F47676"/>
<stop offset="1" stop-color="#FF7D7D"/>
</linearGradient>
</defs>
</svg>
